<?xml version="1.0" encoding="UTF-8"?>
<svg xmlns="http://www.w3.org/2000/svg" xmlns:xlink="http://www.w3.org/1999/xlink" width="622px" height="622px" viewBox="0 0 622 622" version="1.1">
<g id="surface1">
<path style=" stroke:none;fill-rule:nonzero;fill:rgb(25.098041%,49.411765%,78.823531%);fill-opacity:1;" d="M 311.203125 660.65625 C 306.882812 660.65625 302.621094 659.65625 298.878906 657.765625 L 12.324219 513.035156 C 4.722656 509.195312 0 502.039062 0 494.359375 L 0 204.894531 C 0 197.214844 4.722656 190.054688 12.324219 186.214844 L 298.878906 41.484375 C 302.621094 39.597656 306.882812 38.597656 311.203125 38.597656 C 315.523438 38.597656 319.789062 39.597656 323.53125 41.484375 L 610.082031 186.21875 C 617.683594 190.054688 622.40625 197.214844 622.40625 204.894531 L 622.40625 494.359375 C 622.40625 502.039062 617.683594 509.195312 610.082031 513.035156 L 323.53125 657.765625 C 319.789062 659.65625 315.527344 660.65625 311.203125 660.65625 Z M 311.203125 660.65625 "/>
<path style=" stroke:none;fill-rule:nonzero;fill:rgb(100%,100%,100%);fill-opacity:1;" d="M 226.25 592.625 L 226.25 406.761719 L 261.683594 388.867188 L 297.117188 406.761719 L 297.117188 549.71875 C 297.117188 556.511719 303.4375 562.039062 311.203125 562.039062 C 318.972656 562.039062 325.289062 556.511719 325.289062 549.71875 L 325.289062 399.648438 C 325.289062 395.261719 322.589844 391.167969 318.246094 388.976562 L 226.25 342.511719 L 226.25 106.628906 L 311.203125 63.71875 L 396.15625 106.628906 L 396.15625 292.488281 L 360.722656 310.382812 L 325.289062 292.488281 L 325.289062 149.535156 C 325.289062 142.738281 318.972656 137.210938 311.203125 137.210938 C 303.4375 137.210938 297.117188 142.738281 297.117188 149.535156 L 297.117188 299.605469 C 297.117188 303.992188 299.816406 308.082031 304.160156 310.273438 L 396.15625 356.742188 L 396.15625 592.625 L 311.203125 635.53125 Z M 226.25 592.625 "/>
<path style=" stroke:none;fill-rule:nonzero;fill:rgb(100%,100%,100%);fill-opacity:1;" d="M 424.328125 406.761719 L 459.761719 388.867188 L 495.195312 406.761719 L 495.195312 449.671875 C 495.195312 456.464844 501.515625 461.996094 509.28125 461.996094 C 517.050781 461.996094 523.367188 456.464844 523.367188 449.671875 L 523.367188 399.648438 C 523.367188 395.261719 520.667969 391.171875 516.324219 388.976562 L 424.328125 342.511719 L 424.328125 120.855469 L 594.234375 206.671875 L 594.234375 292.488281 L 558.800781 310.382812 L 523.367188 292.488281 L 523.367188 249.582031 C 523.367188 242.785156 517.050781 237.257812 509.28125 237.257812 C 501.515625 237.257812 495.195312 242.785156 495.195312 249.582031 L 495.195312 299.605469 C 495.195312 303.992188 497.894531 308.082031 502.238281 310.273438 L 594.234375 356.742188 L 594.234375 492.578125 L 424.328125 578.394531 Z M 424.328125 406.761719 "/>
<path style=" stroke:none;fill-rule:nonzero;fill:rgb(100%,100%,100%);fill-opacity:1;" d="M 127.210938 542.601562 L 127.210938 399.648438 C 127.210938 392.855469 120.894531 387.324219 113.125 387.324219 C 105.359375 387.324219 99.039062 392.855469 99.039062 399.648438 L 99.039062 528.371094 L 28.171875 492.578125 L 28.171875 206.671875 L 198.078125 120.855469 L 198.078125 292.488281 L 139.753906 321.945312 C 138.664062 322.496094 137.992188 323.515625 137.992188 324.613281 C 137.992188 325.714844 138.664062 326.734375 139.753906 327.28125 L 198.078125 356.742188 L 198.078125 578.394531 Z M 113.125 237.257812 C 105.359375 237.257812 99.039062 242.785156 99.039062 249.578125 L 99.039062 287.269531 C 99.039062 294.066406 105.359375 299.59375 113.125 299.59375 C 120.894531 299.59375 127.210938 294.066406 127.210938 287.269531 L 127.210938 249.578125 C 127.210938 242.785156 120.894531 237.257812 113.125 237.257812 Z M 113.125 237.257812 "/>
</g>
</svg>
