<?xml version="1.0" encoding="UTF-8"?>
<svg id="Layer_2" data-name="Layer 2" xmlns="http://www.w3.org/2000/svg" xmlns:xlink="http://www.w3.org/1999/xlink" viewBox="0 0 136.48 136.48">
  <defs>
    <style>
      .cls-1 {
        fill: url(#radial-gradient);
      }

      .cls-1, .cls-2, .cls-3 {
        stroke-width: 0px;
      }

      .cls-2 {
        fill: #fff;
      }

      .cls-3 {
        fill: #005596;
      }
    </style>
    <radialGradient id="radial-gradient" cx="73.56" cy="92.36" fx="73.56" fy="92.36" r="71.97" gradientTransform="translate(44.88 -30.99) rotate(20.35)" gradientUnits="userSpaceOnUse">
      <stop offset="0" stop-color="#00afef"/>
      <stop offset="1" stop-color="#005295"/>
    </radialGradient>
  </defs>
  <g id="Layer_1-2" data-name="Layer 1">
    <path class="cls-1" d="m122.41,85.92c-11.54,31.13-46.14,47.01-77.27,35.46C14.01,109.84-1.87,75.24,9.68,44.11,21.22,12.98,55.82-2.9,86.95,8.65c31.13,11.54,47.01,46.14,35.46,77.27Z"/>
    <g>
      <polygon class="cls-2" points="95.65 25.36 95.2 25.46 93.21 23.8 94.76 24.14 95.65 25.36 95.65 25.36"/>
      <polygon class="cls-2" points="93.33 16.79 93.1 16.56 95.09 17.48 93.28 16.34 91.36 15.34 89.09 14.23 86.7 13.16 84.29 12.27 81.9 11.45 80.43 11.78 79.88 11.28 77.07 10.69 75.01 10.24 79.43 10.72 76.94 10.17 74.31 9.64 71.77 9.32 69.31 9.04 66.59 8.89 64.15 8.85 61.5 8.97 58.98 9.17 56.46 9.48 51.12 10.54 48.12 11.44 48.65 11.61 50.83 11.58 54.33 10.52 55.48 10.37 54.63 10.16 56.28 9.72 56.35 9.7 56.62 9.61 56.74 9.66 61.01 9.18 62.34 9.22 57.04 9.91 52.54 11.8 51.48 12.75 49 14 47.57 14.5 45.79 15.33 45.64 15.83 44.1 16.45 40.34 17.77 32.99 22.18 34.29 22.5 38.81 21.04 39.19 21.81 41.86 23.34 42.92 23.34 42.95 24.42 42.97 25.18 44.02 25.26 42.02 26.67 37.31 30.15 38.76 30.53 37.94 31.53 32.48 34.56 30.84 35.08 29.46 37.23 26.78 39.64 25.88 42.49 27.15 41.11 28.47 40.31 29.35 38.78 32.58 34.87 35.33 34.67 33.87 37.11 33.05 38.73 31.53 39.94 34.58 41.88 37.69 40.13 39 38.2 40.66 36.43 42.17 36.65 43.13 37.33 42.31 39.39 43.4 39.19 44.32 40.95 45.96 43.26 48.88 44.74 51.87 45.25 54.62 44.73 57.43 42.44 57.76 41.57 60.89 43.19 60.94 41.85 59.97 41.15 61.2 39.47 64.22 41.63 63.78 42.01 61.95 41.88 63.82 43.54 63.72 44.46 62.13 44.45 61.92 44.93 62.33 45.77 61.26 45.78 59.07 46.66 60.06 48 61.58 48.48 62.84 47.71 63.51 46.73 63.92 45.85 64.48 45.72 67.76 46.89 69.07 47.29 68.83 48.46 70.02 49.32 76.1 50.4 79.63 49.48 80.91 47.82 79.66 46.81 80.3 45.31 85.66 47.17 87.78 51.14 89.02 52.43 89.28 51.76 91.4 51.9 92.51 52.93 91.57 53.67 93.07 54.12 93.82 53.65 94.13 54.17 92.88 54.77 92.07 54.41 89.42 54.5 87.65 54.21 86.15 55.24 83.86 58 88.45 58.1 92.16 55.36 94.47 57.68 96.39 57.38 98.43 58.51 98.95 56.2 100.44 56.57 101.64 58.92 103.05 57.99 100.64 52.05 97.06 48.78 97.35 47.28 95.48 41.97 94.36 42.11 93.73 39.99 92.57 39.82 92.98 39.01 94.12 39.03 94.24 37.56 93.54 37.42 92.04 32.68 95.19 35.46 96.39 34.04 92.35 27.48 90.1 25.1 88.5 25.02 88.48 23.19 93.13 26.84 93.61 26.56 92.52 25.25 89.82 23.73 92.12 23.75 91.15 22.66 94.17 21.36 97.65 22.97 99.54 24.16 100.52 23.46 100.34 22.52 101.54 22.66 100.28 21.24 98.39 20.05 95.35 17.87 97.65 20.38 97.91 21.36 97.44 21.23 96.51 20.54 96.68 19.97 94.71 18.21 93.54 18.02 92.34 17.46 93 17.59 94.16 17.84 93.27 17.16 92.68 16.74 93.89 17.37 93.51 16.97 93.33 16.79 93.33 16.79"/>
      <polygon class="cls-2" points="114.46 93.63 115.21 92.27 116.26 90.14 117.28 87.9 118.24 85.46 119.1 82.91 119.88 80.48 120.47 78.05 121.06 75.27 121.37 72.97 121.66 70.44 121.86 67.8 121.91 65.21 121.8 62.57 121.62 59.9 121.34 57.63 120.95 55.19 120.43 52.64 119.79 50.15 119.4 49.06 119.93 52.2 119.29 50.32 119.32 52.39 120.68 55.66 121.07 58.11 121.06 60.61 120.64 60.53 120.39 61.72 119.35 58.74 118.96 56.12 118.46 53.62 117.84 50.63 117.19 49.6 116.91 50.07 117.84 52.43 115.74 50.79 116.42 52.49 117.16 52.97 117.52 54.42 117.05 54.45 116.88 55.49 116.11 55.15 115.33 57.51 113.87 56.45 113.6 57.03 112.73 56.09 111.81 57.82 110.45 57.21 108.17 56.06 107.12 54.85 105.87 55.28 105.18 56.22 104.4 56.37 104.97 57.96 105.25 59.29 104.59 58.29 103.43 58.54 103.71 59.91 105.34 60.54 105.07 61.66 102.94 62.63 103.56 66.08 104.35 65.78 104.6 66.76 105.53 66.49 104.68 67.93 102.08 69.06 103.65 69.37 106.29 67.68 106.47 66.53 107.89 65.06 108.29 64.91 108.33 65.59 107.27 67.03 108.39 66.48 108.65 65.65 109.51 66.18 109.77 66.75 111.14 66.77 111.66 67.95 112.35 68.56 112.29 67.41 113.53 71.78 113.76 71.46 114.29 75.07 115.13 75.4 115.63 76.51 115.47 78.01 115.36 77.35 115.01 77.49 115.26 79.17 114.33 83.28 114.29 83.39 113.81 89.28 114.33 89.26 114.33 90.04 114.33 90.2 113.1 95.49 114.15 93.18 114.92 90.01 115.19 90.17 114.83 91.91 114.23 93.98 114.46 93.63 114.46 93.63"/>
      <polygon class="cls-2" points="26.59 46.31 25.75 46.67 23.51 49.47 23.97 51.74 23.61 53.79 24.25 54.5 28.01 53.92 28.11 54.75 30.24 52.07 31.46 53.01 31.61 51.32 32.24 50.41 30.26 49.73 29.76 48.88 28.34 48.63 27.94 47.71 26.96 47.92 27.12 46.5 26.77 46.72 26.59 46.31 26.59 46.31"/>
      <polygon class="cls-2" points="33.83 84.1 34.05 82.77 34.64 83.4 34.94 82.91 34.4 81.18 34.83 79.1 33.98 75.62 33.25 72.33 30.71 70.95 30.95 69.65 32 68.62 31.67 67 30.32 66.31 30.27 67.93 29.27 69.3 29.83 70.57 30.62 74.5 28.52 75.6 29.75 77.28 29.66 78.87 30.87 80.61 32.32 80.86 32.78 82.71 32.43 84.79 33.93 87.32 33.83 84.1 33.83 84.1"/>
      <polygon class="cls-2" points="102.25 60.63 101.82 59.49 102.63 60.58 102.25 60.63 102.25 60.63"/>
      <polygon class="cls-2" points="112.39 52.6 112.69 54.65 113.34 55.29 113.6 52.41 112.52 51.86 112.39 52.6 112.39 52.6"/>
      <polygon class="cls-2" points="114.5 55.77 115.01 54.82 113.95 54.59 113.69 52.42 113.99 53.16 114.51 51.6 115.52 53.12 116.12 53.25 116.26 55.01 115.87 54.79 115.59 56.48 114.44 55.82 114.5 55.77 114.5 55.77"/>
      <polygon class="cls-2" points="112.38 46.34 112.86 47.04 112.36 47.17 111.86 46.55 111.87 46.27 112.38 46.34 112.38 46.34"/>
      <polygon class="cls-2" points="112.91 49.18 113.44 49.2 113.84 49.98 113.4 51.31 112.49 49.59 112.91 49.18 112.91 49.18"/>
      <polygon class="cls-2" points="111.85 49.57 112.09 48.99 112.23 50.69 111.8 50.49 111.85 49.57 111.85 49.57"/>
      <polygon class="cls-2" points="111.6 44.57 111.26 43.74 112.34 44.24 112.39 44.87 112.18 45.36 111.6 44.57 111.6 44.57"/>
      <polygon class="cls-2" points="113.46 47.01 113.52 47.5 114.69 48.24 114.91 46.59 114.37 45.59 114.39 47.29 113.96 46.71 113.46 47.01 113.46 47.01"/>
      <polygon class="cls-2" points="114.84 49.2 115.07 48.56 115.74 50.79 114.84 49.2 114.84 49.2"/>
      <polygon class="cls-2" points="118.43 52.99 119.04 52.6 119.05 54.9 118.43 52.99 118.43 52.99"/>
      <polygon class="cls-2" points="110.29 40.04 110.61 42.41 110.95 43.41 111.4 42.79 111.97 43.87 112.6 44.3 113.02 45.25 113.89 46.6 114.05 45.43 113.59 44.63 112.72 43.09 112.51 43.34 112.1 42.22 110.29 40.04 110.29 40.04"/>
      <polygon class="cls-2" points="112.4 68.76 112.19 69.43 112.03 68.64 112.4 68.76 112.4 68.76"/>
      <polygon class="cls-2" points="113.03 70.67 113.13 71.92 112.73 70.84 112.77 70.4 113.03 70.67 113.03 70.67"/>
      <polygon class="cls-2" points="113.06 73.94 113.16 73.38 113.3 74.39 113.06 73.94 113.06 73.94"/>
      <polygon class="cls-2" points="105.89 68.44 106.32 68.03 106.84 68.48 106.03 69.08 105.89 68.44 105.89 68.44"/>
      <polygon class="cls-2" points="118.92 49.96 118.59 49.89 118.73 51.4 116.73 48.07 116.95 49.18 116.53 50.47 115.47 48.9 115.26 46.96 116.04 47.91 115.96 45.79 116.39 45.34 116.95 46.23 117 44.81 117.74 46.28 117.69 47.22 118.37 47.41 118.64 48.63 118.92 49.96 118.92 49.96"/>
      <polygon class="cls-2" points="109.5 30.45 110.35 31.97 107.84 28.74 109.5 30.45 109.5 30.45"/>
      <polygon class="cls-2" points="104.19 30.76 103.08 29.74 103.07 28.49 103.91 29.67 103.49 29.67 104.58 30.74 104.65 31.03 104.19 30.76 104.19 30.76"/>
      <polygon class="cls-2" points="103.44 30.81 102.77 29.83 103.71 30.55 103.94 30.89 103.44 30.81 103.44 30.81"/>
      <polygon class="cls-2" points="114.84 38.53 116.45 42.23 114.21 40.99 113.38 41.17 113.82 42.93 113.42 43.15 113.11 42.13 112.9 43.04 111.62 40.88 110.53 39.93 109.53 37.85 109.26 38.19 108.24 36.73 107.28 34.19 108.31 34.61 108.02 34.19 109.22 33.95 108.97 32.93 110.41 34.05 109.74 32.26 114.84 38.53 114.84 38.53"/>
      <polygon class="cls-2" points="99.15 34 98.49 33.95 98.26 33.36 99.15 34 99.15 34"/>
      <polygon class="cls-2" points="98.23 33.5 98.21 34.15 97.19 33.55 97.77 33.08 98.23 33.5 98.23 33.5"/>
      <polygon class="cls-2" points="97.38 40.92 97.68 41.25 97.18 41.91 96.39 40.75 97.17 40.31 97.38 40.92 97.38 40.92"/>
      <polygon class="cls-2" points="97.91 41.17 97.98 42.24 97.43 41.86 97.91 41.17 97.91 41.17"/>
      <polygon class="cls-2" points="98 42.35 98.24 43.54 97.79 43.02 98 42.35 98 42.35"/>
      <polygon class="cls-2" points="96.26 41.78 96.11 42.55 95.66 41.57 96.26 41.78 96.26 41.78"/>
      <polygon class="cls-2" points="102.13 51.51 102.43 52.25 101.59 51.82 102.13 51.51 102.13 51.51"/>
      <polygon class="cls-2" points="100.92 30.78 101.09 30.49 100.62 30.04 100.92 30.78 100.92 30.78"/>
      <polygon class="cls-2" points="96.04 25.67 95.86 26.04 96.78 26.78 96.83 28.88 96.23 28.42 95.98 26.54 95.28 25.54 96.04 25.67 96.04 25.67"/>
      <polygon class="cls-2" points="81.78 49.16 77.83 52.86 77.67 51.7 76.22 52.13 75.34 53.34 74.61 52.7 79.08 50.34 79.79 49.53 81.78 49.16 81.78 49.16"/>
      <polygon class="cls-2" points="76.63 56.86 75.1 56.24 76.12 56.36 76.63 56.86 76.63 56.86"/>
      <polygon class="cls-2" points="74.03 55.23 73.63 56.11 72.54 55.15 71.57 55.2 71.59 54.05 69.98 53.39 70.91 52.77 72.15 53.42 74.02 52.69 74.03 55.23 74.03 55.23"/>
      <polygon class="cls-2" points="70.29 54.04 69.01 55.59 67.5 55.49 65.25 56.54 63.55 55.8 62.81 54.49 63.11 54.04 62.6 54.02 62.39 54.43 61.28 53.95 61.56 53.27 62.25 53.17 60.87 51.11 60.37 51.12 60.13 50.21 62.12 50.97 63.12 53.05 65.44 53.17 65.73 54.09 66.84 54.46 69.82 53.69 70.29 54.04 70.29 54.04"/>
      <polygon class="cls-2" points="60.61 52.89 60.46 52.35 59.6 52.13 60 51.37 61.44 52.29 61.26 53.06 60.61 52.89 60.61 52.89"/>
      <polygon class="cls-2" points="40.79 114.06 40.62 113.52 39.78 113.3 40.17 112.54 41.62 113.46 41.44 114.24 40.79 114.06 40.79 114.06"/>
      <polygon class="cls-2" points="53.63 107.82 55.28 108.96 55.29 110.48 56.49 112.61 55.86 114.36 54.61 115.21 54.12 114.93 54.15 115.44 54.58 115.61 54.18 116.77 53.47 116.53 53.33 115.86 51.36 117.42 51.39 117.9 50.49 118.21 51.12 116.17 53.14 115.01 53.11 112.7 54.01 112.35 54.3 111.22 53.32 108.33 53.63 107.82 53.63 107.82"/>
      <polygon class="cls-2" points="53.15 117.52 52.62 117.72 52.46 118.58 51.67 118.24 52.49 116.74 53.28 116.85 53.15 117.52 53.15 117.52"/>
      <polygon class="cls-2" points="60 50.14 58.98 49.6 58.46 49.95 58.66 50.25 59.17 50.08 58.85 50.41 57.45 50.78 57.35 51.12 57.88 51.06 57.34 51.3 59.41 51.47 60.03 50.86 60 50.14 60 50.14"/>
      <polygon class="cls-2" points="42.2 39.71 41.92 40.22 41.05 40.1 40.38 39.77 40.49 39 41.27 38.57 42 39.02 42.2 39.71 42.2 39.71"/>
      <polygon class="cls-2" points="49.24 46.35 48.76 46.87 46.06 47.11 47.39 45.91 49.24 46.35 49.24 46.35"/>
      <polygon class="cls-2" points="13.39 62.46 12.42 63.31 11.93 64.86 12.03 64.02 11.74 64.82 11.71 64.22 10.43 69.15 10.11 69.8 9.9 69.61 9.89 69.58 10.05 72.35 10.84 73.21 11.69 75.79 12.76 76.67 13.95 78.83 14.74 81.25 14.83 81.35 15.31 82.95 15.22 85.1 16.65 85.55 16.35 85.98 15.52 85.84 15.8 86.43 16.26 86.38 16.21 86.82 15.84 86.87 16.34 87.63 16 88.71 16.35 90.04 16.94 91.4 17.8 92.14 18.12 93.53 20.06 95.38 20.13 95.46 22.05 95.45 23.7 96.03 23.76 96.06 25.18 95.82 26.32 94.61 26.26 92.28 26.76 91.7 26.21 91.07 26.92 89.66 26.35 87.27 28.04 84.78 28.11 83.83 27.65 83.11 29.15 80.88 28.94 80.46 27.76 80.54 25.17 82.07 24.48 82.08 23.99 81.63 23.34 77.8 23.53 76.61 24.68 76.16 24.97 76.59 25.64 76.55 25.67 75.96 25.11 75.88 25.42 75.52 24.94 75.06 24.19 71.99 24.15 71.84 23.97 72.76 22.67 71.09 22.35 71.41 21.51 71.08 21.12 71.74 20.93 70.6 20.27 70.48 20.82 70.23 20.93 69.5 20.51 68.07 20.24 68.28 19.87 67.72 19.67 68.04 19.22 67.61 18.64 68.05 18.57 67.07 17.83 67.76 18.29 66.64 17.79 66.48 17.3 67.04 16.22 66.75 14.73 63.78 13.31 62.79 13.56 62.33 13.39 62.46 13.39 62.46"/>
      <polygon class="cls-2" points="17.06 92.81 18.35 94.93 18.15 95.39 16.91 94.21 17.06 92.81 17.06 92.81"/>
      <polygon class="cls-2" points="35.26 101.75 35.24 100.81 35.54 100.89 35.85 103.18 35.26 101.75 35.26 101.75"/>
      <polygon class="cls-2" points="40.27 100.69 40.18 101.37 39.84 101.1 40.27 100.69 40.27 100.69"/>
      <polygon class="cls-2" points="45.81 108.7 46.03 109.02 45.77 109.23 45.02 108.44 45.81 108.7 45.81 108.7"/>
      <polygon class="cls-2" points="47.08 108.96 47.96 109.49 47.51 109.62 46.66 109.03 47.08 108.96 47.08 108.96"/>
      <polygon class="cls-2" points="28.78 34 28.46 35.86 26.24 39.46 25.5 41.84 24.99 42.03 25.09 42.61 24.23 43.07 22.97 46.12 21.06 47.35 20.87 46.52 23.04 41.89 28.78 34 28.78 34"/>
      <polygon class="cls-2" points="20.38 53.66 20.07 49.14 20.52 47.34 20.99 47.75 20.76 50.29 20.89 51.6 21.38 51.76 20.9 54.09 21.05 55.29 20.47 55.93 20.38 53.66 20.38 53.66"/>
      <polygon class="cls-2" points="36.43 50.4 35.71 50.88 35.6 50.53 36.43 50.4 36.43 50.4"/>
      <polygon class="cls-2" points="38.39 50.26 38.54 51.32 37.87 51.65 37.63 51.52 38.39 50.26 38.39 50.26"/>
      <polygon class="cls-2" points="43.29 49.7 42.03 50.54 40.31 50.34 39.64 50.86 39.88 51.77 39.77 53.04 38.7 53.76 39.23 51.38 38.84 50.43 40.69 48.62 40.74 49.11 42.88 48.35 43.29 49.7 43.29 49.7"/>
      <polygon class="cls-2" points="36.97 53.56 37.06 54.11 35.56 54.49 35.93 53.63 36.97 53.56 36.97 53.56"/>
      <polygon class="cls-2" points="37.91 54.41 37.87 55.16 36.93 55.66 37.91 54.41 37.91 54.41"/>
      <polygon class="cls-2" points="37.63 54.3 36.95 54.71 35.97 54.59 37.63 54.3 37.63 54.3"/>
      <polygon class="cls-2" points="36.83 56.18 36.62 57.1 35.46 58.22 34.45 58.43 35.06 57.74 34.54 57.52 33.6 58.15 33.72 56.74 34.79 55.74 34.15 55.16 34.36 54.72 33.61 54.74 33.69 54.4 34.53 54.31 35.35 54.92 34.94 55.54 36.06 56.01 36.19 56.48 36.83 56.18 36.83 56.18"/>
      <polygon class="cls-2" points="35.67 83.2 37.03 85.21 37.98 85.64 38.36 85.3 38.68 86.02 37.72 86.23 36.52 85.51 35.71 84.24 35.67 83.2 35.67 83.2"/>
      <polygon class="cls-2" points="39.29 88.32 39.19 89.84 38.82 89.3 39.29 88.32 39.29 88.32"/>
      <polygon class="cls-2" points="39.6 93.72 40.01 94.88 39.5 94.2 39.6 93.72 39.6 93.72"/>
      <polygon class="cls-2" points="28.24 64.62 28.78 65.74 28.99 66.71 28.66 67.29 28.03 64.68 28.24 64.62 28.24 64.62"/>
      <polygon class="cls-2" points="22.79 65.11 22.38 65.1 21.94 64.2 22.48 64.08 24.2 66.37 22.79 65.11 22.79 65.11"/>
      <polygon class="cls-2" points="21.99 60.27 22.95 62.74 22.03 61.48 21.99 60.27 21.99 60.27"/>
      <polygon class="cls-2" points="21.45 60.71 21.19 61.87 21.13 60.03 21.45 60.71 21.45 60.71"/>
      <polygon class="cls-2" points="21.25 57.82 21.66 59.71 20.83 58.11 21.25 57.82 21.25 57.82"/>
      <polygon class="cls-2" points="21.03 56.99 21.3 57.45 20.88 57.7 20.76 57.08 21.03 56.99 21.03 56.99"/>
      <polygon class="cls-2" points="28.97 56.39 30.36 59.81 29.24 59.57 27.98 56.24 26.89 57.38 28.24 59.38 26.83 58.15 25.41 60.66 24.81 59.82 26.11 58.26 25.75 57.84 23.95 59.17 23.76 58.44 25.52 56.45 28.21 55.83 28.97 56.39 28.97 56.39"/>
      <polygon class="cls-2" points="25.01 60.92 25.52 60.83 25.33 61.16 24.59 61.28 25.01 60.92 25.01 60.92"/>
      <polygon class="cls-2" points="27.34 62.85 27.61 63.37 27.32 64.05 27.05 63.33 27.34 62.85 27.34 62.85"/>
      <polygon class="cls-2" points="31.48 61.68 30.76 62.32 31.49 62.62 31.46 63.01 30.88 62.94 30.72 63.62 30.44 62.84 30.49 61.94 31.48 61.68 31.48 61.68"/>
      <polygon class="cls-2" points="28.64 71.27 28.97 71.45 28.43 71.91 28.64 71.27 28.64 71.27"/>
      <polygon class="cls-2" points="26.09 69.5 26.7 69.72 26.03 69.86 26.09 69.5 26.09 69.5"/>
    </g>
    <path class="cls-2" d="m97.74,3.6c-7.83-9.5-35.6.46-62.02,22.23-4.5,3.71-8.67,7.53-12.45,11.35,3.58-3.45,7.49-6.91,11.68-10.3C60.17,6.48,85.9-3.54,92.39,4.49c6.49,8.03-8.7,31.08-33.94,51.49C33.22,76.38,7.49,86.41,1,78.37c-.43-.53-.76-1.13-1-1.78.1,2.33.76,4.32,2.04,5.88,7.83,9.5,35.6-.46,62.02-22.23C90.49,38.45,105.57,13.1,97.74,3.6Z"/>
    <path class="cls-2" d="m131.37,16.06c-8.48-11.85-42.08-2.32-75.03,21.28-5.62,4.02-10.84,8.19-15.62,12.41,4.51-3.79,9.4-7.56,14.62-11.23,31.44-22.07,62.62-31.85,69.65-21.84,7.02,10.01-12.77,36.01-44.21,58.08-31.44,22.07-62.63,31.85-69.65,21.84-.46-.66-.8-1.39-1.04-2.19-.07,2.75.55,5.16,1.94,7.1,8.48,11.85,42.08,2.32,75.03-21.28,32.96-23.6,52.79-52.34,44.31-64.19Z"/>
    <path class="cls-3" d="m39.09,27.21l-.36-.15c-.08.07-.16.13-.24.2-4.5,3.71-8.67,7.53-12.46,11.35,3.58-3.45,7.49-6.91,11.68-10.3.46-.37.92-.74,1.39-1.1ZM100.51,5.03c-3.79-4.6-12.28-4.63-23.02-.96l1.22.59c7.83-2.29,13.78-2.05,16.46,1.26,6.49,8.03-8.7,31.08-33.94,51.49-25.24,20.4-50.96,30.43-57.45,22.4-.43-.53-.76-1.13-1-1.78.1,2.33.76,4.32,2.04,5.88,7.83,9.5,35.6-.46,62.02-22.23,26.43-21.78,41.5-47.14,33.67-56.64Z"/>
    <path class="cls-3" d="m56.04,41.79c-4.32,3.23-8.39,6.54-12.17,9.87,3.91-3.28,8.12-6.55,12.57-9.75-.13-.04-.27-.08-.4-.12Zm78.48-23.82c-4.09-5.71-14.03-6.44-26.91-3.03l.77.94c9.64-2.19,16.81-1.47,19.75,2.71,7.02,10.01-12.77,36.01-44.21,58.08-31.44,22.07-62.62,31.85-69.65,21.84-.46-.66-.8-1.39-1.04-2.19-.07,2.76.55,5.16,1.94,7.11,8.48,11.85,42.08,2.32,75.03-21.28,32.96-23.6,52.79-52.34,44.31-64.18Z"/>
  </g>
</svg>